<?xml version="1.0" standalone="no"?>
<!DOCTYPE svg PUBLIC "-//W3C//DTD SVG 20010904//EN"
 "http://www.w3.org/TR/2001/REC-SVG-20010904/DTD/svg10.dtd">
<svg version="1.0" xmlns="http://www.w3.org/2000/svg"
 width="503.000000pt" height="225.000000pt" viewBox="0 0 503.000000 225.000000"
 preserveAspectRatio="xMidYMid meet">

<g transform="translate(0.000000,225.000000) scale(0.100000,-0.100000)"
fill="#000000" stroke="none">
<path d="M446 2224 c-94 -13 -172 -28 -176 -33 -3 -5 -21 -82 -39 -170 l-34
-160 -40 -3 c-39 -3 -41 -5 -53 -50 -6 -26 -9 -49 -6 -52 3 -4 20 -6 39 -6 18
0 33 -4 33 -8 0 -4 -36 -177 -80 -385 -86 -404 -94 -476 -64 -576 40 -135 171
-201 331 -167 105 22 178 61 255 138 l67 66 22 -45 c59 -123 205 -191 349
-163 85 16 153 56 229 135 69 71 81 78 81 45 0 -34 52 -118 88 -144 108 -74
308 -44 426 64 25 24 46 41 46 39 0 -2 -36 -170 -79 -374 -44 -203 -78 -371
-77 -372 2 -2 369 86 372 90 2 2 31 133 65 292 33 160 62 291 64 293 1 2 15
-8 29 -21 14 -14 48 -31 74 -38 53 -16 179 -16 233 -1 24 6 54 6 85 1 118 -23
269 30 376 129 l65 62 18 -45 c33 -88 94 -138 189 -156 101 -18 227 19 311 92
l35 31 -7 -34 c-16 -82 -13 -79 -119 -123 -116 -48 -176 -87 -233 -151 -94
-107 -93 -264 1 -350 52 -47 95 -64 177 -71 82 -7 162 9 240 48 122 61 192
178 243 407 l32 142 51 16 c156 50 284 182 355 365 16 43 30 81 30 84 0 3 -23
5 -51 5 -49 0 -50 -1 -65 -37 -61 -153 -137 -248 -232 -292 -28 -14 -55 -22
-58 -19 -4 5 202 994 232 1115 l6 23 -180 0 -180 0 -11 -47 c-6 -27 -47 -215
-90 -419 -48 -225 -88 -388 -101 -415 -42 -83 -100 -129 -164 -129 -48 0 -66
28 -66 101 0 43 117 633 175 887 l5 22 -179 0 -179 0 -15 -67 c-9 -38 -48
-221 -87 -408 -72 -346 -87 -396 -135 -453 -30 -36 -93 -72 -124 -72 -19 0
-18 4 13 68 43 86 82 210 102 326 23 129 16 361 -13 432 -29 73 -65 116 -125
150 -49 27 -61 29 -153 28 -108 0 -176 -20 -242 -70 -38 -29 -38 -26 -18 66 8
36 14 71 15 78 0 9 -42 12 -178 12 l-178 0 -93 -442 c-98 -464 -112 -516 -162
-591 -79 -119 -229 -108 -229 17 0 22 41 232 90 465 50 233 90 432 90 443 0
17 -10 18 -177 16 l-178 -3 -9 -48 -8 -47 -18 32 c-50 94 -252 104 -420 20
-77 -38 -197 -159 -253 -256 -81 -139 -137 -325 -152 -503 -8 -93 -27 -129
-97 -175 -32 -22 -53 -28 -95 -28 -70 0 -93 21 -93 86 0 26 37 219 82 430 l81
384 73 0 c40 0 75 3 77 8 3 4 8 28 11 55 l7 47 -70 0 c-41 0 -71 4 -71 10 0
11 68 334 76 363 6 20 22 21 -190 -9z m975 -524 c10 -6 26 -24 34 -40 14 -27
11 -48 -51 -336 -36 -170 -73 -322 -81 -338 -46 -89 -110 -136 -185 -136 -39
0 -50 5 -72 31 -26 30 -29 40 -41 110 -8 53 12 209 40 318 28 104 86 234 134
299 61 82 162 124 222 92z m1276 -44 c31 -36 43 -88 43 -186 0 -281 -106 -551
-244 -623 -78 -40 -186 -21 -186 32 0 9 32 167 70 351 78 373 86 393 170 437
57 31 114 26 147 -11z m917 -1238 c-22 -97 -43 -144 -81 -183 -42 -43 -82 -47
-118 -10 -62 61 0 160 139 226 34 16 64 29 68 29 3 0 0 -28 -8 -62z"/>
<path d="M4446 1982 c-10 -37 -20 -71 -22 -77 -2 -5 17 -18 42 -29 118 -48
259 -167 317 -267 61 -103 71 -150 72 -325 l0 -161 70 -21 c51 -15 72 -17 77
-9 17 28 30 159 26 252 -17 317 -242 607 -543 699 -18 5 -23 -2 -39 -62z"/>
<path d="M4361 1652 c-11 -39 -21 -74 -21 -79 0 -4 23 -20 50 -35 90 -50 149
-167 136 -269 l-7 -48 69 -20 c38 -12 74 -21 80 -21 15 0 25 55 25 130 -1 73
-30 170 -69 231 -49 78 -147 157 -215 174 -25 6 -27 4 -48 -63z"/>
</g>
</svg>
